<?xml version="1.0" encoding="utf-8"?>
<svg width="307px" height="307px" viewBox="0 0 307 307" version="1.1" xmlns:xlink="http://www.w3.org/1999/xlink" xmlns="http://www.w3.org/2000/svg">
  <defs>
    <linearGradient x1="0.5" y1="0" x2="0.5" y2="1" id="gradient_1">
      <stop offset="0" stop-color="#1D0024" />
      <stop offset="1" stop-color="#100014" />
    </linearGradient>
    <linearGradient x1="0.5" y1="0" x2="0.5" y2="1" id="gradient_2">
      <stop offset="0" stop-color="#E6864E" />
      <stop offset="1" stop-color="#EB965E" />
    </linearGradient>
    <linearGradient x1="0.5" y1="0" x2="0.5" y2="1" id="gradient_3">
      <stop offset="0" stop-color="#FECBB5" />
      <stop offset="1" stop-color="#FED4C4" />
    </linearGradient>
    <path d="M150 300C232.843 300 300 232.843 300 150C300 67.1573 232.843 0 150 0C67.1573 0 0 67.1573 0 150C0 232.843 67.1573 300 150 300Z" id="path_1" />
    <path d="M195 35C202.255 51.1221 206 100 206 100L0 100C0 100 3.74471 51.1221 11 35C17.3556 20.877 59.2385 4.66122 71.5128 0C78.6024 7.92792 88.7564 13 103 13C117.244 13 127.398 7.92792 134.487 0C146.761 4.66122 188.644 20.877 195 35Z" id="path_2" />
    <clipPath id="mask_1">
      <use xlink:href="#path_1" />
    </clipPath>
    <clipPath id="mask_2">
      <use xlink:href="#path_2" />
    </clipPath>
  </defs>
  <g id="User-03a" transform="translate(3.4588623 3.4588928)">
    <path d="M150 300C232.843 300 300 232.843 300 150C300 67.1573 232.843 0 150 0C67.1573 0 0 67.1573 0 150C0 232.843 67.1573 300 150 300Z" id="Mask" fill="url(#gradient_1)" fill-rule="evenodd" stroke="none" />
    <g clip-path="url(#mask_1)">
      <path d="M199.177 128.126C270.638 69.5705 203.18 16.0265 130.721 44.5555C122.97 47.6074 101.488 35.3947 81.592 48.2661C68.7571 56.5693 73.7538 63.0748 68.7564 69.5809C63.759 76.0869 44.4906 75.7065 40.272 92.6027C37.7729 102.612 44.692 113.095 43.7685 120.627C42.8449 128.16 35.5417 134.952 35.1944 144.896C34.5771 162.574 48.3864 177.405 66.0384 178.021C66.1349 195.213 79.7347 209.444 97.0185 210.048C102.534 210.241 116.5 210.241 128.5 203C158.569 184.857 151.82 166.93 199.177 128.126Z" id="hair" fill="#FFFFFF" fill-rule="evenodd" stroke="none" />
      <path d="M125 194C125 185 124.694 140.608 124.709 139.858C100 143.5 100.5 96.5 125.5 108C131 111.5 146.5 108 145 79C172 108 203.347 74.1761 206.035 101.738C209.705 139.373 206.013 178.759 182.624 178.762C180.385 178.762 177.844 178.508 175 178C175 183.667 175 190.333 175 194C175 204 193 209 193 209C193 209 161.908 238.296 149 238.138C136.092 237.981 107 209 107 209C107 209 125 204 125 194Z" id="face" fill="url(#gradient_2)" fill-rule="evenodd" stroke="none" />
      <path d="M175 178C154.676 173.595 140.366 162.899 140.366 162.899C140.366 162.899 149 184 174.969 188L175 178Z" id="shade" fill="#DB6F3D" fill-rule="evenodd" stroke="none" />
      <g id="body" transform="translate(47 204)">
        <path d="M195 35C202.255 51.1221 206 100 206 100L0 100C0 100 3.74471 51.1221 11 35C17.3556 20.877 59.2385 4.66122 71.5128 0C78.6024 7.92792 88.7564 13 103 13C117.244 13 127.398 7.92792 134.487 0C146.761 4.66122 188.644 20.877 195 35Z" id="Mask" fill="url(#gradient_3)" fill-rule="evenodd" stroke="none" />
        <g clip-path="url(#mask_2)">
          <path d="M9 10C9 13.3137 6.31371 16 3 16C-0.313709 16 -3 13.3137 -3 10C-3 6.68629 -0.313709 4 3 4C6.31371 4 9 6.68629 9 10ZM49 10C49 13.3137 46.3137 16 43 16C39.6863 16 37 13.3137 37 10C37 6.68629 39.6863 4 43 4C46.3137 4 49 6.68629 49 10ZM169 10C169 13.3137 166.314 16 163 16C159.686 16 157 13.3137 157 10C157 6.68629 159.686 4 163 4C166.314 4 169 6.68629 169 10ZM209 10C209 13.3137 206.314 16 203 16C199.686 16 197 13.3137 197 10C197 6.68629 199.686 4 203 4C206.314 4 209 6.68629 209 10ZM29 30C29 33.3137 26.3137 36 23 36C19.6863 36 17 33.3137 17 30C17 26.6863 19.6863 24 23 24C26.3137 24 29 26.6863 29 30ZM69 30C69 33.3137 66.3137 36 63 36C59.6863 36 57 33.3137 57 30C57 26.6863 59.6863 24 63 24C66.3137 24 69 26.6863 69 30ZM109 30C109 33.3137 106.314 36 103 36C99.6863 36 97 33.3137 97 30C97 26.6863 99.6863 24 103 24C106.314 24 109 26.6863 109 30ZM149 30C149 33.3137 146.314 36 143 36C139.686 36 137 33.3137 137 30C137 26.6863 139.686 24 143 24C146.314 24 149 26.6863 149 30ZM189 30C189 33.3137 186.314 36 183 36C179.686 36 177 33.3137 177 30C177 26.6863 179.686 24 183 24C186.314 24 189 26.6863 189 30ZM9 50C9 53.3137 6.31371 56 3 56C-0.313709 56 -3 53.3137 -3 50C-3 46.6863 -0.313709 44 3 44C6.31371 44 9 46.6863 9 50ZM49 50C49 53.3137 46.3137 56 43 56C39.6863 56 37 53.3137 37 50C37 46.6863 39.6863 44 43 44C46.3137 44 49 46.6863 49 50ZM89 50C89 53.3137 86.3137 56 83 56C79.6863 56 77 53.3137 77 50C77 46.6863 79.6863 44 83 44C86.3137 44 89 46.6863 89 50ZM129 50C129 53.3137 126.314 56 123 56C119.686 56 117 53.3137 117 50C117 46.6863 119.686 44 123 44C126.314 44 129 46.6863 129 50ZM169 50C169 53.3137 166.314 56 163 56C159.686 56 157 53.3137 157 50C157 46.6863 159.686 44 163 44C166.314 44 169 46.6863 169 50ZM209 50C209 53.3137 206.314 56 203 56C199.686 56 197 53.3137 197 50C197 46.6863 199.686 44 203 44C206.314 44 209 46.6863 209 50ZM29 70C29 73.3137 26.3137 76 23 76C19.6863 76 17 73.3137 17 70C17 66.6863 19.6863 64 23 64C26.3137 64 29 66.6863 29 70ZM69 70C69 73.3137 66.3137 76 63 76C59.6863 76 57 73.3137 57 70C57 66.6863 59.6863 64 63 64C66.3137 64 69 66.6863 69 70ZM109 70C109 73.3137 106.314 76 103 76C99.6863 76 97 73.3137 97 70C97 66.6863 99.6863 64 103 64C106.314 64 109 66.6863 109 70ZM149 70C149 73.3137 146.314 76 143 76C139.686 76 137 73.3137 137 70C137 66.6863 139.686 64 143 64C146.314 64 149 66.6863 149 70ZM189 70C189 73.3137 186.314 76 183 76C179.686 76 177 73.3137 177 70C177 66.6863 179.686 64 183 64C186.314 64 189 66.6863 189 70ZM9 90C9 93.3137 6.31371 96 3 96C-0.313709 96 -3 93.3137 -3 90C-3 86.6863 -0.313709 84 3 84C6.31371 84 9 86.6863 9 90ZM49 90C49 93.3137 46.3137 96 43 96C39.6863 96 37 93.3137 37 90C37 86.6863 39.6863 84 43 84C46.3137 84 49 86.6863 49 90ZM89 90C89 93.3137 86.3137 96 83 96C79.6863 96 77 93.3137 77 90C77 86.6863 79.6863 84 83 84C86.3137 84 89 86.6863 89 90ZM129 90C129 93.3137 126.314 96 123 96C119.686 96 117 93.3137 117 90C117 86.6863 119.686 84 123 84C126.314 84 129 86.6863 129 90ZM169 90C169 93.3137 166.314 96 163 96C159.686 96 157 93.3137 157 90C157 86.6863 159.686 84 163 84C166.314 84 169 86.6863 169 90ZM209 90C209 93.3137 206.314 96 203 96C199.686 96 197 93.3137 197 90C197 86.6863 199.686 84 203 84C206.314 84 209 86.6863 209 90Z" id="Combined-Shape" fill="#FFA789" fill-rule="evenodd" stroke="none" />
        </g>
      </g>
    </g>
  </g>
</svg>